<?xml version="1.0" standalone="no"?>
<!DOCTYPE svg PUBLIC "-//W3C//DTD SVG 20010904//EN"
 "http://www.w3.org/TR/2001/REC-SVG-20010904/DTD/svg10.dtd">
<svg version="1.0" xmlns="http://www.w3.org/2000/svg"
 width="260.000000pt" height="260.000000pt" viewBox="0 0 260.000000 260.000000"
 preserveAspectRatio="xMidYMid meet">
<metadata>
Created by potrace 1.11, written by Peter Selinger 2001-2013
</metadata>
<g transform="translate(0.000000,260.000000) scale(0.100000,-0.100000)"
fill="#000000" stroke="none">
<path d="M0 1300 l0 -1300 1300 0 1300 0 0 1300 0 1300 -1300 0 -1300 0 0
-1300z m1455 435 c114 -29 191 -109 213 -220 15 -75 16 -618 2 -646 -9 -15
-22 -19 -68 -19 -32 0 -63 5 -70 12 -7 7 -12 32 -12 56 l0 44 -41 -37 c-60
-54 -119 -77 -214 -82 -135 -9 -253 39 -311 127 -91 137 -20 291 165 361 43
16 344 69 395 69 15 0 -1 109 -21 143 -24 41 -69 66 -131 74 -105 12 -193 -22
-240 -93 -21 -32 -26 -34 -77 -34 -74 0 -86 20 -52 93 61 134 267 202 462 152z"/>
<path d="M1435 1278 c-243 -37 -322 -63 -350 -118 -32 -62 -9 -127 58 -162 59
-32 184 -32 243 -1 81 43 120 110 130 222 6 58 4 71 -7 70 -8 -1 -41 -6 -74
-11z"/>
</g>
</svg>
